<svg xmlns="http://www.w3.org/2000/svg" width="6cm" height="6cm" viewBox="0 0 170.08 170.08"><defs><style>.a{fill:#fff;}</style></defs><title>gArtboard 1 copy</title><rect class="a" x="86.48" y="95.42" width="48.39" height="0.23"/><path class="a" d="M59.88,96H34.12V25.44ZM35.38,94.8H58.09L35.38,32.52Z"/><path class="a" d="M137.66,96H111.91l25.75-70.61Zm-24-1.25h22.71V32.52Z"/><path class="a" d="M111.79,120.28H60.38L84.49,95.53,86,95ZM63.39,119h45.37L86,96.31Z"/><rect class="a" x="37.77" y="94.91" width="48.39" height="1.25"/><rect class="a" x="85" y="94.91" width="49.62" height="1.25"/><path class="a" d="M60.49,120.28H34.12V93.91ZM35.38,119h22.1l-22.1-22.1Z"/><path class="a" d="M137.66,120.28H111.29l26.37-26.37ZM114.31,119h22.1V96.93Z"/><polygon class="a" points="60.49 120.28 35.83 96 84.8 95.96 60.49 120.28"/><polygon class="a" points="111.49 120.28 86.83 96 135.8 95.96 111.49 120.28"/></svg>