<?xml version="1.0" encoding="UTF-8"?>
<svg width="24px" height="24px" viewBox="0 0 24 24" version="1.1" xmlns="http://www.w3.org/2000/svg" xmlns:xlink="http://www.w3.org/1999/xlink">
    <!-- Generator: Sketch 43.1 (39012) - http://www.bohemiancoding.com/sketch -->
    <title>nfc-icon/black/mail</title>
    <desc>Created with Sketch.</desc>
    <defs></defs>
    <g id="Symbols" stroke="none" stroke-width="1" fill="none" fill-rule="evenodd">
        <g id="nfc-icon/black/mail">
            <g>
                <g id="Group" transform="translate(0.000000, 3.000000)" stroke="#000000">
                    <path d="M20.891,2.8603 L12.964,9.988 C12.3638,10.5277 11.4143,10.5277 10.8141,9.988 L2.8872,2.8603" id="Shape"></path>
                    <path d="M15.581,10.7256 L20.8912,15.1427" id="Shape"></path>
                    <path d="M8.1977,10.7256 L2.8874,15.1427" id="Shape"></path>
                    <path d="M0.5,2.7908 L0.5,15.2123 C0.5,16.4763 1.525,17.5 2.8423,17.5 L21.1503,17.5 C22.4674,17.5 23.4999,16.4763 23.4999,15.2122 L23.4999,2.7908 C23.5,1.5266 22.4675,0.5 21.1504,0.5 L2.8423,0.5 C1.525,0.5 0.5,1.5266 0.5,2.7908 L0.5,2.7908 Z" id="Shape"></path>
                </g>
                <rect id="Rectangle-path" x="0" y="0" width="24" height="24"></rect>
            </g>
        </g>
    </g>
</svg>