<?xml version="1.0" encoding="UTF-8"?>
<svg width="24px" height="24px" viewBox="0 0 24 24" version="1.1" xmlns="http://www.w3.org/2000/svg" xmlns:xlink="http://www.w3.org/1999/xlink">
    <!-- Generator: Sketch 43.1 (39012) - http://www.bohemiancoding.com/sketch -->
    <title>nfc-icon/black/profile</title>
    <desc>Created with Sketch.</desc>
    <defs></defs>
    <g id="Symbols" stroke="none" stroke-width="1" fill="none" fill-rule="evenodd">
        <g id="nfc-icon/black/profile">
            <g id="nfc-icon/black/mail">
                <g>
                    <g id="Group" transform="translate(1.000000, 1.000000)" stroke="#000000">
                        <path d="M21.4985255,17.6907853 C17.9567542,16.3217967 14.0251173,14.6220429 13.6946597,13.5628119 L13.6946597,12.4516799 C14.4293982,11.699941 15.0088456,10.6514197 15.3517526,9.42392271 C16.1745112,8.8462165 16.3813475,7.65311415 15.6985911,6.81322611 L15.6985911,4.32569112 C15.6985911,1.75783334 14.2688652,0 11.0005459,0 C7.81653374,0 6.30075347,1.75783334 6.30075347,4.32569112 L6.30075347,6.81404993 C5.61908918,7.6533201 5.82658071,8.84539267 6.64759195,9.4235108 C6.99049901,10.6514197 7.57038325,11.699941 8.30555852,12.4516799 L8.30555852,13.5628119 C7.9759746,14.6208072 4.04346398,16.3209729 0.50169269,17.6907853 C0.19984711,17.8079742 -1.24344979e-14,18.1016673 -1.24344979e-14,18.429961 L-1.24344979e-14,21.2089235 C-1.24344979e-14,21.645344 0.349022603,22 0.779294522,22 L21.2207053,22 C21.6509772,22 21.9999998,21.645344 21.9999998,21.2089235 L21.9999998,18.429961 C22.0002182,18.1016673 21.8003711,17.8071504 21.4985255,17.6907853 L21.4985255,17.6907853 Z" id="Shape"></path>
                    </g>
                    <rect id="Rectangle-path" x="0" y="0" width="24" height="24"></rect>
                </g>
            </g>
        </g>
    </g>
</svg>