<?xml version="1.0" encoding="UTF-8"?>
<svg width="24px" height="24px" viewBox="0 0 24 24" version="1.1" xmlns="http://www.w3.org/2000/svg" xmlns:xlink="http://www.w3.org/1999/xlink">
    <!-- Generator: Sketch 43.1 (39012) - http://www.bohemiancoding.com/sketch -->
    <title>nfc-icon/black/stats</title>
    <desc>Created with Sketch.</desc>
    <defs></defs>
    <g id="Symbols" stroke="none" stroke-width="1" fill="none" fill-rule="evenodd">
        <g id="nfc-icon/black/stats">
            <g>
                <g id="Group" transform="translate(0.960000, 1.920000)" stroke="#000000">
                    <path d="M5.50684822,15.8456646 L1.10265604,15.8456646 C0.732576029,15.8456646 0.425376017,16.1668806 0.425376017,16.5368647 L0.425376017,19.9964168 C0.425376017,20.3664968 0.732576029,20.6446088 1.10265604,20.6446088 L5.50684822,20.6446088 C5.87510423,20.6446088 6.18537625,20.3664968 6.18537625,19.9964168 L6.18537625,16.5368647 C6.18537625,16.1668806 5.87510423,15.8456646 5.50684822,15.8456646 L5.50684822,15.8456646 Z" id="Shape"></path>
                    <path d="M13.1876165,10.0850884 L8.78342435,10.0850884 C8.41334433,10.0850884 8.10614432,10.4063044 8.10614432,10.7762884 L8.10614432,19.9964168 C8.10614432,20.3664968 8.41334433,20.6446088 8.78342435,20.6446088 L13.1876165,20.6446088 C13.5558725,20.6446088 13.8661446,20.3664968 13.8661446,19.9964168 L13.8661446,10.7762884 C13.8661446,10.4063044 13.5558725,10.0850884 13.1876165,10.0850884 L13.1876165,10.0850884 Z" id="Shape"></path>
                    <path d="M20.8683848,0.484128019 L16.4641927,0.484128019 C16.0941126,0.484128019 15.7869126,0.805344032 15.7869126,1.17532805 L15.7869126,19.9964168 C15.7869126,20.3664968 16.0941126,20.6446088 16.4641927,20.6446088 L20.8683848,20.6446088 C21.2366408,20.6446088 21.5469129,20.3664968 21.5469129,19.9964168 L21.5469129,1.17532805 C21.5469129,0.805344032 21.2366408,0.484128019 20.8683848,0.484128019 L20.8683848,0.484128019 Z" id="Shape"></path>
                    <path d="M9.9884164,1.45219206 L1.38547206,10.0550404" id="Shape"></path>
                    <polyline id="Shape" points="5.74694423 1.44000006 10.0669444 1.44000006 10.0669444 5.76000023"></polyline>
                </g>
                <rect id="Rectangle-path" x="0.946944038" y="0" width="23.0400009" height="23.0400009"></rect>
            </g>
        </g>
    </g>
</svg>